<?xml version="1.0" encoding="UTF-8" standalone="no"?>
<svg
   xmlns:dc="http://purl.org/dc/elements/1.1/"
   xmlns:cc="http://creativecommons.org/ns#"
   xmlns:rdf="http://www.w3.org/1999/02/22-rdf-syntax-ns#"
   xmlns:svg="http://www.w3.org/2000/svg"
   xmlns="http://www.w3.org/2000/svg"
   xmlns:sodipodi="http://sodipodi.sourceforge.net/DTD/sodipodi-0.dtd"
   xmlns:inkscape="http://www.inkscape.org/namespaces/inkscape"
   width="558.56171"
   height="585.9765"
   id="svg2"
   version="1.1"
   inkscape:version="0.48.5 r10040"
   sodipodi:docname="algo.svg">
  <metadata
     id="metadata11">
    <rdf:RDF>
      <cc:Work
         rdf:about="">
        <dc:format>image/svg+xml</dc:format>
        <dc:type
           rdf:resource="http://purl.org/dc/dcmitype/StillImage" />
        <dc:title></dc:title>
      </cc:Work>
    </rdf:RDF>
  </metadata>
  <defs
     id="defs9" />
  <sodipodi:namedview
     pagecolor="#ffffff"
     bordercolor="#666666"
     borderopacity="1"
     objecttolerance="10"
     gridtolerance="10"
     guidetolerance="10"
     inkscape:pageopacity="0"
     inkscape:pageshadow="2"
     inkscape:window-width="1600"
     inkscape:window-height="838"
     id="namedview7"
     showgrid="false"
     inkscape:object-paths="true"
     inkscape:snap-bbox="true"
     inkscape:bbox-paths="true"
     inkscape:bbox-nodes="true"
     inkscape:snap-bbox-midpoints="true"
     inkscape:snap-bbox-edge-midpoints="true"
     inkscape:object-nodes="true"
     inkscape:snap-intersection-paths="true"
     inkscape:snap-midpoints="false"
     inkscape:snap-smooth-nodes="true"
     showguides="true"
     inkscape:guide-bbox="true"
     inkscape:zoom="0.48155992"
     inkscape:cx="251.67279"
     inkscape:cy="315.32137"
     inkscape:window-x="-8"
     inkscape:window-y="-8"
     inkscape:window-maximized="1"
     inkscape:current-layer="Thu Nov  6 17:31:03 2014"
     fit-margin-top="0"
     fit-margin-left="0"
     fit-margin-right="0"
     fit-margin-bottom="0" />
  <g
     inkscape:groupmode="layer"
     id="Thu Nov  6 17:31:03 2014"
     transform="translate(-240.53275,-287.74555)">
    <g
       id="Plane.001">
      <!-- start Plane.001 -->
      <path
         id="curva_3D.Plane.001"
         d="m 528.7203,770.906 0,0 -4.4375,-25.7275 -4.4692,-6.4319 -4.4691,6.4319 -4.4376,25.7275 -4.3743,25.7275 -2.741,14.9982 -5.1457,23.5359 -2.6579,12.8066 -0.886,12.8066 -0.104,9.605 -0.3121,3.2016 -0.4162,0 -0.4162,0 -0.4162,0 -0.4162,0 -0.4162,0 -0.4162,0 -10.1542,0 -29.6301,0 -29.6241,0 -10.1365,0 -0.3925,0 -0.3926,0 -0.3925,0 -0.3926,0 -0.3926,0 -0.3925,0 -0.2945,-1.4777 -0.0981,-4.4331 5.9999,-12.5669 17.9999,-25.8791 18.5772,-28.3177 7.7321,-19.8826 1.1548,-24.4015 -1.1548,-41.874 -2.5606,-40.9954 -3.0627,-21.7655 -3.7657,-10.3431 -4.6694,-6.7279 -7.6569,-4.569 -12.7279,-3.866 -14.8366,-3.2134 -13.9832,-2.6109 -12.9287,-0.728 -11.6735,2.4351 -11.071,5.9497 -11.1213,9.8159 -10.0919,9.5898 -7.9832,5.2719 -6.728,6.7531 -6.3262,14.0334 -5.4728,14.3345 -4.1673,7.6569 -4.8201,2.4602 -7.4308,-1.2552 -8.2091,-5.4226 -7.1548,-10.0417 -3.364,-14.7614 3.1631,-19.5814 7.5689,-19.988 9.8535,-15.9812 11.297,-12.7128 11.8994,-10.1824 15.6777,-8.9223 22.6315,-8.9322 21.1881,-7.2301 11.3471,-3.8158 4.225,-2.5431 -0.1783,-3.4116 -3.3439,-3.0627 -5.2717,-1.4963 -6.2634,-2.0059 -6.3188,-4.5916 -8.1991,-3.6601 -11.9045,0.7883 -15.6401,1.0292 -19.4056,-2.9372 -18.8283,0.1506 -13.9078,10.2928 -12.276,11.4225 -13.9329,3.5397 -12.4518,-2.887 -7.8326,-7.8576 -0.8284,-14.2091 8.5606,-21.9412 13.1546,-20.5103 12.9539,-9.9162 17.548,-3.9665 26.9369,-2.661 28.0014,-0.4995 20.7411,2.518 16.6894,5.0511 15.8459,7.0994 12.8735,6.4191 7.7724,3.01 3.5146,-0.5523 0.1004,-4.2678 -5.3221,-10.7697 -12.753,-20.0584 -16.4685,-19.6819 -16.4684,-9.64 -14.435,-6.1255 -10.3681,-9.138 -12.1003,-8.9873 -19.6316,-5.6736 -19.3303,-5.7741 -11.1966,-9.2885 -5.1581,-10.2995 -1.2153,-8.8066 1.6584,-7.5698 3.4629,-6.589 4.4035,-4.323 4.4803,-0.7716 10.0418,1.205 21.0877,1.6067 23.5959,3.0532 17.5667,5.5444 14.318,7.8295 13.85,9.9081 15.1448,13.1902 18.2023,17.6762 15.7523,11.7008 7.7946,-4.7357 -0.3765,-15.4391 -8.7615,-20.4099 -16.8701,-20.209 -24.7027,-14.8366 -22.7947,-11.3974 -11.1463,-9.8911 -3.8629,-8.6001 -0.9446,-7.5245 1.3619,-6.6815 3.0565,-6.0715 6.6433,-5.4546 12.1222,-4.8306 18.4266,-2.0085 25.5563,3.0126 27.8156,13.6316 25.2047,29.8491 19.5388,31.6425 10.8178,19.0118 6.4573,6.3482 6.4572,-6.3482 10.8177,-19.0118 19.5388,-31.6425 25.2048,-29.8491 27.8156,-13.6316 25.5562,-3.0126 18.4266,2.0085 12.1223,4.8306 6.6433,5.4546 3.0565,6.0715 1.3619,6.6815 -0.9446,7.5245 -3.8629,8.6001 -11.1463,9.8911 -22.7948,11.3974 -24.7027,14.8366 -16.8701,20.209 -8.7614,20.4099 -0.3766,15.4391 7.7946,4.7357 15.7524,-11.7008 18.2022,-17.6762 15.1449,-13.1902 13.85,-9.9081 14.318,-7.8295 17.5666,-5.5444 23.596,-3.0532 21.0876,-1.6067 10.0418,-1.205 4.4804,0.7716 4.4035,4.323 3.4629,6.589 1.6584,7.5698 -1.2153,8.8066 -5.1582,10.2995 -11.1965,9.2885 -19.3304,5.7741 -19.6316,5.6736 -12.1003,8.9873 -10.368,9.138 -14.435,6.1255 -16.4685,9.64 -16.4684,19.6819 -12.7531,20.0584 -5.322,10.7697 0.1004,4.2678 3.5146,0.5523 7.7723,-3.01 12.8736,-6.4191 15.8459,-7.0994 16.6893,-5.0511 20.7411,-2.518 28.0014,0.4995 26.9371,2.661 17.5479,3.9665 12.9538,9.9162 13.1547,20.5103 8.5605,21.9412 -0.8283,14.2091 -7.8326,7.8576 -12.4518,2.887 -13.9329,-3.5397 -12.276,-11.4225 -13.9079,-10.2928 -18.8282,-0.1506 -19.4057,2.9372 -15.64,-1.0292 -11.9045,-0.7883 -8.1992,3.6601 -6.3187,4.5916 -6.2634,2.0059 -5.2718,1.4963 -3.3439,3.0627 -0.1783,3.4116 4.225,2.5431 11.3472,3.8158 21.188,7.2301 22.6316,8.9322 15.6776,8.9223 11.8995,10.1824 11.297,12.7128 9.8535,15.9812 7.5689,19.988 3.1631,19.5814 -3.364,14.7614 -7.1548,10.0417 -8.2091,5.4226 -7.4309,1.2552 -4.8201,-2.4602 -4.1673,-7.6569 -5.4727,-14.3345 -6.3263,-14.0334 -6.7279,-6.7531 -7.9832,-5.2719 -10.092,-9.5898 -11.1212,-9.8159 -11.071,-5.9497 -11.6735,-2.4351 -12.9288,0.728 -13.9831,2.6109 -14.8367,3.2134 -12.7279,3.866 -7.6568,4.569 -4.6694,6.7279 -3.7657,10.3431 -3.0628,21.7655 -2.5606,40.9954 -1.1547,41.874 1.1547,24.4015 7.7322,19.8826 18.5772,28.3177 17.9998,25.8791 6,12.5669 -0.0982,4.4331 -0.2944,1.4777 -0.3926,0 -0.3926,0 -0.3925,0 -0.3925,0 -0.3926,0 -0.3925,0 -10.1365,0 -29.6242,0 -29.6301,0 -10.1542,0 -0.4162,0 -0.4161,0 -0.4162,0 -0.4162,0 -0.4162,0 -0.4162,0 -0.3121,-3.2016 -0.104,-9.605 -0.886,-12.8066 -2.658,-12.8066 -5.1457,-23.5359 -7.1153,-40.7257"
         inkscape:connector-curvature="0"
         style="fill:none;stroke:#1a334d;stroke-width:0.26929134;stroke-linecap:round;stroke-miterlimit:4;stroke-dasharray:none"
         sodipodi:nodetypes="csccccccccccccccccccccccccccccccccccccccccccccccccccccccccccccccccccccccccccccccccccccccccccccccccccccccccccccccccccccccccccccccccccccccccccccccccccccccccccccccccccccccccccccccccccccccccccccccccccccccccccccccccccccccccccccccccccccccccccccccccccccccccccccccccccccccccccccccccccccccc" />
    </g>
    <!-- end Plane.001 -->
  </g>
</svg>
