<?xml version="1.0" encoding="UTF-8" standalone="no"?>
<!-- Created with Inkscape (http://www.inkscape.org/) -->

<svg
   xmlns:dc="http://purl.org/dc/elements/1.1/"
   xmlns:cc="http://creativecommons.org/ns#"
   xmlns:rdf="http://www.w3.org/1999/02/22-rdf-syntax-ns#"
   xmlns:svg="http://www.w3.org/2000/svg"
   xmlns="http://www.w3.org/2000/svg"
   xmlns:sodipodi="http://sodipodi.sourceforge.net/DTD/sodipodi-0.dtd"
   xmlns:inkscape="http://www.inkscape.org/namespaces/inkscape"
   width="441.03119"
   height="532.95929"
   id="svg4704"
   version="1.1"
   inkscape:version="0.48.5 r10040"
   sodipodi:docname="mix.svg">
  <defs
     id="defs4706" />
  <sodipodi:namedview
     id="base"
     pagecolor="#ffffff"
     bordercolor="#666666"
     borderopacity="1.0"
     inkscape:pageopacity="0.0"
     inkscape:pageshadow="2"
     inkscape:zoom="0.74597899"
     inkscape:cx="285.47075"
     inkscape:cy="330.70887"
     inkscape:document-units="px"
     inkscape:current-layer="layer1"
     showgrid="false"
     inkscape:window-width="1600"
     inkscape:window-height="838"
     inkscape:window-x="-8"
     inkscape:window-y="-8"
     inkscape:window-maximized="1"
     fit-margin-top="0"
     fit-margin-left="0"
     fit-margin-right="0"
     fit-margin-bottom="0" />
  <metadata
     id="metadata4709">
    <rdf:RDF>
      <cc:Work
         rdf:about="">
        <dc:format>image/svg+xml</dc:format>
        <dc:type
           rdf:resource="http://purl.org/dc/dcmitype/StillImage" />
        <dc:title></dc:title>
      </cc:Work>
    </rdf:RDF>
  </metadata>
  <g
     inkscape:label="Layer 1"
     inkscape:groupmode="layer"
     id="layer1"
     transform="translate(-158.18138,-37.588287)">
    <path
       style="fill:#887376;fill-opacity:1;stroke:#000000;stroke-width:0.35433072;stroke-linecap:round;stroke-linejoin:round;stroke-miterlimit:4;stroke-opacity:1;stroke-dasharray:none"
       d="m 520.14994,256.87613 c -5.95752,1.62909 2.19973,6.23204 -2.97056,8.12726 -4.94352,3.80806 1.32772,10.60168 8.25155,7.42054 7.74214,-0.78166 9.44473,-7.22386 4.05505,-10.60077 -2.50455,-1.86212 -4.87986,-5.43303 -9.33604,-4.94703 z"
       id="path4799"
       inkscape:connector-curvature="0"
       inkscape:export-filename="/home/ibnteo/sites/test/ladoshki42/logo.png"
       inkscape:export-xdpi="175.21001"
       inkscape:export-ydpi="175.21001" />
    <path
       style="fill:#4f4345;fill-opacity:1;stroke:#000000;stroke-width:0.35433072;stroke-linecap:round;stroke-linejoin:round;stroke-miterlimit:4;stroke-opacity:1;stroke-dasharray:none"
       d="m 558.04231,368.12491 c -8.32739,4.33003 -10.62741,15.18085 -11.46875,23.8125 -1.24255,5.14183 4.22997,10.57075 9,6.8125 5.20111,-5.95122 10.70303,-12.58177 12.6875,-20.375 -0.5717,-4.65858 -5.60712,-9.72628 -10.21875,-10.25 z"
       id="path4791"
       inkscape:connector-curvature="0"
       inkscape:export-filename="/home/ibnteo/sites/test/ladoshki42/logo.png"
       inkscape:export-xdpi="175.21001"
       inkscape:export-ydpi="175.21001" />
    <path
       style="fill:#887376;fill-opacity:1;stroke:#000000;stroke-width:0.35433072;stroke-linecap:round;stroke-linejoin:round;stroke-miterlimit:4;stroke-opacity:1;stroke-dasharray:none"
       d="m 287.44856,362.37491 c -25.84655,-0.23548 -51.61779,1.74945 -77.46875,1.8125 -8.28767,6.46595 -15.20405,14.95138 -22.96875,22.1875 -0.89719,6.50851 10.15778,2.20364 14.37451,3.51929 38.26718,0.2366 76.54705,0.46809 114.74953,2.82395 61.29514,0.73673 122.61722,0.50932 183.90613,-0.60845 14.23765,-1.38074 29.21177,-1.21376 42.59483,-6.70354 5.89976,-3.46066 10.7276,-10.28792 11.03125,-17.125 -2.87526,-5.07324 -10.2187,-2.36679 -14.93733,-3.26869 -30.04662,-0.002 -60.17279,-0.68888 -90.17431,0.65037 -7.01723,-0.0557 -2.109,8.50824 -6.32586,11.93082 -6.31498,6.28252 -16.64306,6.88445 -24.9375,5.375 -11.43497,-4.23355 -17.67927,-18.66894 -31.1875,-17.8125 -7.67546,0.22789 -15.88196,-1.73521 -23.1875,0.15625 -7.00671,13.06396 -23.48611,21.99375 -38.21875,16.75 -3.51835,-0.0702 -8.1565,-1.58571 -7.34375,-6.0625 -0.60559,-4.37262 3.31389,-9.55095 0.375,-13.25 -10.01682,-0.81236 -20.21436,-0.20964 -30.28125,-0.375 z"
       id="path4795"
       inkscape:connector-curvature="0"
       inkscape:export-filename="/home/ibnteo/sites/test/ladoshki42/logo.png"
       inkscape:export-xdpi="175.21001"
       inkscape:export-ydpi="175.21001" />
    <path
       style="fill:#ede344;fill-opacity:1;stroke:#000000;stroke-width:0.35433072;stroke-linecap:round;stroke-linejoin:round;stroke-miterlimit:4;stroke-opacity:1;stroke-dasharray:none"
       d="m 303.47981,66.03116 c -9.46302,-0.19059 -21.62717,3.78286 -24.28125,13.90625 0.41129,10.41702 11.97078,15.79938 20.97107,17.39504 8.79124,2.76287 19.9277,1.7146 26.68518,8.69871 3.51273,8.08115 8.63375,15.29623 13.46875,22.625 3.21141,6.1648 -3.86483,11.50884 -2.0625,17.875 1.13408,13.08423 10.84733,24.8379 9.53125,38 -0.72873,3.82538 -2.56379,-1.78268 -3.21875,-2.9375 -4.94278,-11.63307 -3.73382,-26.93878 -15.0625,-35.1875 -16.26516,-13.09716 -32.07271,-27.5235 -50.875,-36.84375 -16.09848,-6.19943 -34.12567,-6.36354 -50.95311,-4.38897 -5.88443,7.52799 -0.98659,19.51454 8.04686,22.20147 8.42758,3.57418 18.08916,3.21705 26.71875,1.90625 4.15699,13.38714 20.30434,15.14657 31.60313,18.82158 11.97529,2.15243 15.57539,15.35065 21.80312,23.95967 4.19612,7.39262 10.61932,14.01274 17.4375,18.3125 -2.68722,5.45325 -9.68773,1.58058 -13.375,-0.53125 -13.18034,-9.26922 -28.63417,-14.533 -44.25,-17.875 -17.31685,-2.48852 -35.07114,-0.3968 -52.21875,2.40625 -12.0678,2.6741 -20.88128,13.46962 -25.34375,24.4375 -2.83312,7.15231 3.14275,15.44809 11,14.65625 5.96182,0.81494 13.01628,-0.67939 15.40625,-6.90625 2.94989,-4.03361 3.78459,-11.16667 8.71875,-13 5.44393,1.94124 10.06035,6.7047 16.375,6.34375 12.07325,0.60767 24.16849,0.0192 36.25,0.0313 8.7215,8.60752 22.18843,7.35102 32.25,13.4375 -21.18518,4.91349 -44.67165,4.30976 -63.44112,16.96167 -10.27595,5.75839 -23.14015,10.45334 -27.65263,22.31958 -3.98374,5.11403 -7.76571,10.93566 -6.5,17.8125 -0.51263,8.66632 6.70524,18.468 15.84375,17.84375 7.645,-1.95009 11.2578,-9.98447 10.53125,-17.3125 -0.35253,-3.69836 1.56122,-6.26519 5.3125,-5.78125 12.53851,-4.6012 20.7455,-17.21637 33.9375,-20.1875 9.91614,-0.14653 19.48668,2.5941 29.39389,3.50052 8.73718,1.42777 21.47804,2.52036 23.23111,12.87448 6.14094,31.47185 1.79307,64.15808 6.25,95.8125 1.30129,7.59577 -2.25083,15.03016 -8.78125,18.96875 -3.24371,1.41035 -2.64734,7.0845 1.375,5.75 15.54243,-3.09078 25.05034,-18.39709 27.10275,-33.18224 3.78517,-13.92966 4.01063,-28.69918 8.6785,-42.31776 1.76713,-3.10394 3.40881,-10.492 8.1875,-9.0625 5.34157,5.17625 5.32328,13.8853 7.42329,20.60386 4.18548,17.2367 5.16536,35.84636 13.79546,51.58364 4.53444,5.30571 11.37284,9.55962 18.40625,10.25 4.96226,-1.62026 -0.0572,-6.7278 -2,-8.75 -9.16829,-8.51725 -4.7723,-21.74325 -2.68498,-32.23178 2.67145,-17.42263 0.37294,-35.25179 1.60268,-52.82981 0.70152,-11.02706 0.8308,-22.93565 6.67605,-32.65716 13.36878,-7.07626 29.2231,-7.36435 43.84703,-10.30548 8.35642,-2.65299 14.75246,5.42337 21.6703,8.86929 8.38911,4.84105 17.83309,19.80411 27.77951,21.03235 4.54983,-1.65317 5.49107,-14.41584 4.42191,-18.65866 3.21729,-0.0418 8.00098,5.11889 9.5,0.125 -4.41704,-8.36765 -12.47399,-14.63171 -20.03125,-20.21875 -17.61242,-12.61572 -39.42986,-16.79694 -60.58014,-18.50815 -3.16625,-0.71552 -6.87056,-0.85631 -9.26361,-3.11685 16.11726,-1.99657 29.48522,-15.54725 46.21875,-13.03125 7.93123,3.35474 16.81643,2.95362 24.587,-0.7719 5.43049,-1.64204 11.57758,-5.20587 17.19425,-3.44685 0.86524,10.15914 9.97707,20.5275 20.96875,17.875 6.88729,0.20311 13.73416,-6.1264 11.0625,-13.25 -3.43687,-9.26138 -10.20757,-17.78553 -18.625,-23 -18.23149,-5.45495 -37.78075,-6.93306 -56.71875,-5.28125 -17.50575,2.55985 -33.67453,10.72229 -49.25,18.78125 -2.45103,2.62043 -7.45505,5.88523 -10.125,1.59375 -2.73741,-3.15495 1.7357,-5.50668 4.5625,-5.1875 7.76061,-4.47435 10.35496,-14.30578 15.6875,-21.09375 5.65004,-7.93768 11.66934,-18.78884 22.78125,-18.9375 11.78759,-1.19476 22.05184,-8.4814 28.6875,-18 11.48483,4.00665 26.4062,1.16647 33.96875,-8.8125 4.03244,-5.99051 0.20825,-16.68671 -7.875,-15.875 -22.76093,-1.30417 -47.57221,2.32499 -64.84375,18.46875 -13.81883,11.90183 -32.69925,20.34455 -39.75,38.25 -1.69342,8.4135 -2.43971,18.21768 -8.5,24.8125 -4.14028,-1.09431 -0.19182,-6.19856 0.20765,-8.7884 5.04204,-14.45162 12.83069,-30.36896 6.0736,-45.68035 7.48349,-9.19848 9.52894,-23.01911 20.3125,-29.15625 9.92897,-3.40125 21.51617,-1.93491 30.71875,-8.125 6.62445,-3.34478 14.52402,-11.31646 9.46875,-19.0625 -4.05008,-6.78032 -12.19179,-8.26766 -19.46875,-7.46875 -18.15502,0.1976 -39.58385,2.83536 -50.90625,18.875 -10.55847,14.13154 -19.06248,30.43291 -19.74372,48.43043 -2.55473,18.7811 -2.93135,38.34525 -6.28753,56.69457 -9.08057,-3.09462 -7.68313,-14.26123 -8.08187,-21.90561 -0.49766,-17.84556 -3.14859,-35.63733 -6.69938,-53.09439 -3.26726,-9.89103 -8.37796,-19.19573 -14.09375,-27.875 -9.53125,-12.8651 -25.34819,-19.51979 -40.84375,-21.03125 -2.95665,-1.31968 -6.11296,-1.59784 -9.34375,-1.4375 z m 88.9375,148.46875 c 1.08977,1.08977 -0.72061,0.82574 0,0 z m -26.875,1.0625 c 0.6754,1.12276 -0.82761,0.20644 0,0 z"
       id="path4803"
       inkscape:connector-curvature="0"
       inkscape:export-filename="/home/ibnteo/sites/test/ladoshki42/logo.png"
       inkscape:export-xdpi="175.21001"
       inkscape:export-ydpi="175.21001"
       sodipodi:nodetypes="ccccccccccccccccccccccccccccccccccccccccccccccccccccccccccccccccccccccccccccccccccccccccccccc" />
    <path
       style="fill:#887376;fill-opacity:1;stroke:#000000;stroke-width:0.35433072;stroke-linecap:round;stroke-linejoin:round;stroke-miterlimit:4;stroke-opacity:1;stroke-dasharray:none"
       d="m 526.91731,235.99991 c -4.93905,0.34972 -2.80617,5.65522 -0.0625,7.53125 4.43101,3.64283 6.71485,8.05051 5.46875,13.90625 0.36653,3.32143 -1.35466,11.55098 4.40625,10.28125 4.16872,-2.98819 11.99424,-3.16565 12.9375,-9.09375 -2.29311,-8.01223 -10.16093,-12.89754 -15.34375,-19.03125 -2.00466,-1.92723 -4.35468,-4.10859 -7.40625,-3.59375 z"
       id="path4797"
       inkscape:connector-curvature="0"
       inkscape:export-filename="/home/ibnteo/sites/test/ladoshki42/logo.png"
       inkscape:export-xdpi="175.21001"
       inkscape:export-ydpi="175.21001" />
    <path
       style="fill:#887376;fill-opacity:1;stroke:#000000;stroke-width:0.35433072;stroke-linecap:round;stroke-linejoin:round;stroke-miterlimit:4;stroke-opacity:1;stroke-dasharray:none"
       d="m 486.60481,253.03116 c -4.61621,1.09125 -8.88916,7.22235 -4.03125,10.78125 8.05887,6.70651 20.07659,7.58949 26.625,16 3.37433,1.74557 7.01656,-1.24125 5.25,-5 -0.34807,-10.55 -12.27393,-12.61358 -19.75,-16.59375 -3.19623,-0.92714 -4.61884,-5.86898 -8.09375,-5.1875 z"
       id="path4828"
       inkscape:connector-curvature="0"
       inkscape:export-filename="/home/ibnteo/sites/test/ladoshki42/logo.png"
       inkscape:export-xdpi="175.21001"
       inkscape:export-ydpi="175.21001" />
    <path
       style="fill:#222021;fill-opacity:1;stroke:#000000;stroke-width:0.35433072;stroke-linecap:round;stroke-linejoin:round;stroke-miterlimit:4;stroke-opacity:1;stroke-dasharray:none"
       d="m 505.69629,299.12012 c -0.26396,-0.42709 -0.13952,-0.77652 0.27652,-0.77652 0.41604,0 0.75644,-0.64286 0.75644,-1.42858 0,-0.95238 -0.47619,-1.42857 -1.42857,-1.42857 -0.78572,0 -1.42857,0.35892 -1.42857,0.7976 0,0.97888 1.03205,-1.21267 -8.77878,-5.26681 -4.32143,-1.78575 -7.32794,-2.99846 -6.7583,-3.00357 0.62945,-0.006 -3.96555,-1.13525 -4.37794,-1.51032 -1.31512,-1.19613 -3.4704,-1.48236 -9.18267,-1.48236 -6.79543,0 -9.54672,-3.32816 -7.2766,-7.91834 0.81895,-1.6559 2.3105,-5.24417 2.54291,-6.73929 0.49842,-3.20636 4.80395,-6.4429 7.15221,-6.4429 3.10235,0 17.12367,7.6068 17.18363,9.56694 0.0153,0.5009 3.00787,0.59759 4.18086,0.83219 1.17299,0.2346 2.17198,2.23373 3.22311,3.20788 1.05113,0.97416 5.55078,3.36976 7.4528,3.9346 4.44869,1.32112 2.2602,4.90836 2.21308,10.1515 -0.0356,3.96222 -4.79115,9.05822 -5.75013,7.50655 z"
       id="path4789"
       inkscape:connector-curvature="0"
       sodipodi:nodetypes="cssssscssssscssssc"
       inkscape:export-filename="/home/ibnteo/sites/test/ladoshki42/logo.png"
       inkscape:export-xdpi="175.21001"
       inkscape:export-ydpi="175.21001" />
    <path
       style="fill:#222021;fill-opacity:1;stroke:#000000;stroke-width:0.35433072;stroke-linecap:round;stroke-linejoin:round;stroke-miterlimit:4;stroke-opacity:1;stroke-dasharray:none"
       d="m 352.89059,404.15039 c -50.43464,-0.53807 -128.23919,-2.46104 -135.56702,-3.40161 -2.49463,-0.32019 -10.57128,-1.02023 -19.38045,-0.82112 -8.96973,0.20274 -14.98268,1.03592 -14.98268,0.73216 0,-0.97213 -0.60402,-6.77937 1.05621,-7.89821 0.93817,-0.63223 2.45883,-1.78327 3.59749,-2.12136 2.45518,-0.72899 13.11087,-1.16725 25.32174,-0.57237 6.86506,0.33444 10.10767,0.27714 12.65755,-0.25662 4.28506,-0.89698 37.68522,-0.19589 48.37265,0.95354 13.83888,1.48836 23.04956,1.67054 66.13436,2.28915 69.38991,0.9963 131.87744,0.32105 174.17952,-1.40447 10.7688,-0.43927 11.07063,-0.98061 13.41054,-2.20411 1.3604,-0.71133 8.17815,-0.82433 9.91245,-1.23325 7.91102,-1.86526 10.24791,0.41414 7.57088,4.95138 -1.24698,2.11346 -1.1716,0.76991 -0.18611,1.70601 3.44451,3.27189 2.50953,1.48888 4.54148,4.66532 0.99605,1.55707 1.82442,3.4423 0.66028,3.8025 -0.55852,0.17281 -61.62735,0.44446 -64.33602,-0.0264 -4.56238,-0.79313 -25.94912,-1.99226 -37.63344,-1.07505 -6.38507,0.50123 -14.60218,2.06373 -28.61821,2.20889 -12.50064,0.12947 -28.54021,-0.24753 -30.62365,-0.18302 -2.08344,0.0645 -19.69784,0.0635 -36.08757,-0.11134 z"
       id="path4787"
       inkscape:connector-curvature="0"
       sodipodi:nodetypes="cssssssssssssssssssssc"
       inkscape:export-filename="/home/ibnteo/sites/test/ladoshki42/logo.png"
       inkscape:export-xdpi="175.21001"
       inkscape:export-ydpi="175.21001" />
    <path
       inkscape:connector-curvature="0"
       id="path4783"
       d="m 418.953,406.43891 c -47.5563,-2.68677 -95.37354,-0.32988 -142.9853,-2.62239 -27.99023,0.88847 -55.89019,-2.69561 -83.83668,-1.96145 -17.54215,7.33566 -12.79785,-16.8761 -1.95279,-20.61988 6.76408,-3.88767 13.93511,-21.72572 27.73938,-17.69664 17.56927,0.44474 34.72771,-0.78251 51.41554,-2.47505 17.98134,-0.90023 36.38609,1.24022 54.11986,-1.43428 4.5367,-7.34981 9.78419,-9.47967 15.09389,-17.23019 4.51494,-14.14345 1.50029,-30.28474 0.7724,-44.88807 -1.16452,-13.94397 1.21749,-23.57426 -3.49419,-36.26716 -2.96873,-12.68783 -20.85896,-9.55309 -30.27765,-13.78787 -15.54183,-2.33625 -25.12924,-4.10247 -36.11113,8.05173 -7.18773,5.62231 -6.53311,7.62126 -15.12721,9.88906 -11.97273,-0.71886 -4.05395,17.9502 -13.26875,22.85564 -9.61166,4.27789 -20.80071,-3.80483 -20.63686,-13.3367 -2.01972,-10.66081 4.57132,-20.86915 8.79603,-29.9201 9.53369,-6.66668 19.28175,-17.00603 31.59283,-21.86225 8.28152,-5.83482 19.26097,-5.12522 28.64462,-8.16377 13.07779,0.97081 14.39507,-5.60354 3.53959,-7.27647 -7.45256,0.0683 -10.21931,-10.42986 -16.96839,-4.98072 -12.68967,3.1656 -23.30704,1.76797 -33.76188,-2.0397 -13.48265,-9.15833 -13.93601,15.0371 -25.57514,15.19332 -6.75929,-0.96703 -15.61388,2.60607 -19.34297,-4.92685 -11.08207,-12.67435 7.34563,-24.60957 14.2308,-34.34144 12.07849,-9.45819 28.4283,-6.01589 43.7904,-7.59595 16.58566,-2.7849 30.70118,1.80241 44.8665,6.9114 6.1254,4.60242 27.80766,14.49154 14.01491,-1.61927 -7.83203,-7.83524 -9.33974,-19.20504 -20.30236,-24.51175 -10.86864,-0.34974 -26.25718,-3.74963 -31.53058,-15.91904 -12.74756,-2.01073 -34.15012,-0.046 -39.37678,-14.75336 -2.53763,-9.52595 3.08165,-21.08697 13.96063,-17.57776 20.59786,-0.34743 42.34851,1.4919 59.04339,14.96707 8.63647,6.02089 10.84712,8.43121 19.16686,14.26894 5.23006,2.93864 10.80788,8.29086 15.9729,14.10313 6.5462,4.03458 7.84875,-17.35315 3.214,-17.24941 -3.01382,-6.27494 -6.60944,-9.89099 -10.51738,-16.46352 -11.57319,-16.00447 -40.1373,-6.83252 -47.76495,-27.70213 -1.06825,-21.21673 24.46581,-20.53642 39.27447,-18.17301 9.34605,3.67338 23.62462,2.58564 29.96888,9.5668 3.50642,4.56562 12.30798,11.54513 16.30931,21.20296 3.45237,10.0743 9.67917,11.53704 9.60248,22.02692 3.77411,8.03352 2.81067,25.95566 5.10043,37.68129 3.13503,8.19314 -1.81953,28.3335 5.40439,30.26541 -0.2246,-20.60868 3.66638,-40.39378 4.98461,-60.89043 2.16388,-8.2961 2.51329,-14.96918 7.19181,-21.88866 6.03485,-8.67755 11.03374,-18.63548 17.99931,-26.62231 8.11332,-9.30591 21.78399,-7.59657 31.58113,-11.11167 11.44294,-1.79155 34.82318,-4.920158 38.60634,8.79769 8.55166,12.953 -8.18942,23.18834 -19.20879,25.38338 -9.08822,2.24775 -18.13613,2.69348 -24.5986,9.02229 -3.61332,3.214 -7.0257,11.71917 -10.47939,13.57795 -6.11234,6.7777 -5.29334,14.54167 -2.16251,23.67597 7.34245,-3.13134 11.97804,-12.26002 18.28259,-14.44796 5.85849,-3.28469 10.216,-9.36446 15.6265,-10.90231 4.95008,-7.84807 12.47119,-10.19027 20.74775,-13.5961 16.11223,-7.10405 34.25655,-5.22643 51.4903,-6.23729 15.19296,10.89512 3.02335,34.08293 -15.06663,32.13555 -19.81462,-3.78909 -25.6229,17.7342 -45.44434,17.28983 -16.19116,2.07643 -21.17654,20.8738 -29.22027,33.05844 14.39904,-5.74242 28.12532,-13.6413 43.75214,-15.59211 17.58958,0.21616 35.17206,1.86258 52.43086,3.23363 11.58997,1.20115 18.01423,15.90508 25.83704,24.65125 7.5021,4.93202 0.37877,20.58007 -8.58565,20.11127 -15.22641,6.38123 -23.6112,-7.79937 -30.66884,-17.03721 -7.00794,3.02037 -14.17642,4.53038 -20.69303,4.97542 -10.74418,6.08312 -23.37248,-7.99604 -30.98551,1.12907 -5.27932,3.13842 -25.45939,8.67196 -5.72031,9.6288 9.89094,3.3129 21.43332,2.34869 29.95145,8.04476 11.6311,6.84768 20.18037,14.94732 31.81121,9.52107 5.88522,4.75293 12.8342,10.24881 17.73734,18.03506 7.16262,4.97395 13.57178,13.64399 16.81478,18.37407 11.48328,5.58872 6.22144,15.75054 -5.95741,17.46655 -11.04355,2.58169 -20.3799,8.12766 -30.02339,13.62727 -1.69355,5.67363 -12.31738,12.76427 -15.70759,8.97599 -5.45062,-9.38154 -14.09027,-13.05346 -21.81737,-17.15231 -9.38611,-2.70105 -21.22656,-1.77396 -29.13569,-7.762 2.94457,-6.75143 6.80259,-14.16894 10.34833,-21.29144 3.81771,-10.35458 10.89563,-5.07949 10.37372,-12.5491 -7.39995,-8.86935 -23.00206,-1.12486 -35.14543,-0.63545 -8.15508,2.9643 -26.25407,2.80617 -23.20432,17.61702 -4.49508,15.48507 -1.3826,31.78476 -4.38738,47.45817 -0.57133,11.55611 -1.42785,28.38577 7.03752,34.09907 10.45888,6.59572 13.07466,22.44426 29.91458,15.82423 21.04928,0.13427 42.09088,0.0161 63.09282,-0.77627 13.89329,4.48032 34.34099,-4.42171 44.2699,7.31768 13.58712,7.95088 -1.00994,18.87423 -2.72237,25.59821 -6.42111,14.06521 -26.75214,8.0463 -40.65909,8.9032 -22.76656,0.59943 -45.4078,-1.2687 -68.10343,-1.42488 -10.5998,0.26858 -24.12992,2.89176 -32.98819,2.79712 z m 18.57777,-4.0878 c 17.48125,-1.32179 33.65259,-2.84097 48.59468,-0.093 21.16902,0.1454 42.42584,0.0457 63.51213,0.77003 -3.24993,-6.76636 -6.82391,-9.73775 -8.30844,-6.32268 9.82886,-12.19272 -12.52733,-7.34995 -14.87788,-4.14944 -3.41795,1.1165 -15.90059,0.66623 -25.93004,1.4712 -39.80902,0.43516 -79.54752,2.31481 -119.37619,1.02954 -33.7764,-1.08421 -67.95262,0.39076 -101.48678,-2.22467 -13.57415,-1.98996 -33.64255,-2.13123 -49.64063,-2.20469 -14.09042,5.17079 -41.7499,-7.04738 -46.83385,8.60692 7.15046,1.00465 27.71286,-1.64487 40.30794,1.11268 70.84091,1.22281 141.70587,4.36304 212.56535,2.22687 z m 118.28608,-5.43545 c 5.53397,-9.95171 19.44166,-19.5442 2.95079,-27.3432 -9.28834,1.34742 -16.97912,37.10045 -2.95079,27.3432 z m -46.39365,-6.56239 c 14.69688,-4.15517 36.65157,0.73733 41.79094,-18.03968 7.05414,-10.56343 -17.85956,-3.33571 -23.42286,-5.96714 -27.32897,0.10955 -54.83503,-1.18793 -82.05723,1.06534 2.3394,11.7323 -6.19208,17.26497 -18.10409,17.5399 -15.71093,4.61526 -23.66254,-12.73199 -34.9252,-18.00673 -9.46908,-0.25441 -18.93817,-0.50883 -28.40725,-0.76324 -8.0599,13.79507 -24.11236,23.8671 -40.0932,17.08162 -15.50901,0.83324 -5.0312,-17.6556 -7.14948,-19.36622 -24.44601,-0.2462 -48.9261,-0.84988 -73.24482,1.44849 -11.33113,0.75498 -23.61188,-1.01591 -34.46598,0.79971 -7.61717,7.16368 -14.14995,15.37994 -22.15989,22.13429 39.92417,-0.15645 79.89586,-1.05125 119.69386,2.70818 67.46701,1.73688 135.08576,1.17535 202.5452,-0.63452 z M 347.2779,376.20435 c 17.48354,-10.71595 15.45381,-33.52156 20.60295,-51.03055 -0.53948,-12.03687 10.67243,-46.1662 19.53493,-21.07457 5.82861,20.6583 6.9805,42.87283 15.0857,62.72718 4.45518,9.01574 30.97432,19.01835 13.89932,3.73745 -12.69409,-16.08416 4.5584,-31.78923 -1.03325,-50.22548 1.89606,-22.76762 -2.26072,-47.08717 7.69451,-68.35413 15.96953,-7.98861 34.04519,-8.10747 51.11356,-11.44625 14.89614,5.99391 27.03695,20.04976 41.83997,23.87766 1.73062,-0.16707 7.96814,-4.99858 4.20324,-11.74567 3.95852,-2.4794 16.43635,9.32275 7.28804,-2.59898 -11.86778,-14.12147 -29.20565,-24.14645 -47.06989,-28.15229 -11.28394,-6.01489 -38.36192,-0.39099 -40.57926,-10.83785 19.99715,-0.62636 34.9273,-20.8616 54.71512,-11.29549 13.16231,4.55631 27.47176,-11.59732 37.10257,-5.52688 0.1069,9.00093 8.17025,19.96797 17.9953,17.45544 24.89147,-0.86972 3.47013,-28.06018 -7.4991,-34.05121 -19.99739,-4.90822 -41.44516,-6.61851 -61.8543,-3.75323 -15.07521,4.63634 -29.09584,10.83924 -43.11587,18.33184 -7.90381,11.48116 -21.01993,-7.59435 -4.27292,-7.00306 11.19011,-12.64745 15.93935,-32.3415 31.85196,-39.39943 14.59039,-0.095 27.60792,-7.65872 33.62038,-19.14106 13.14891,7.45974 45.70854,-3.49826 31.39471,-20.64309 -24.32155,-1.9932 -51.36874,0.42702 -69.48457,18.72619 -12.71686,11.11356 -31.0357,19.0869 -37.83493,34.95077 -0.53483,7.45054 -6.62445,37.48381 -14.24889,24.61916 4.36528,-16.89078 17.4134,-36.10184 8.3032,-53.25526 9.58322,-10.61866 11.56883,-33.77743 31.20543,-32.57988 15.90444,0.47305 47.49358,-16.66058 21.76522,-29.44347 -19.01272,-0.594 -42.38782,-0.41158 -56.48952,13.90924 -10.45815,13.62653 -20.5454,28.59573 -21.90344,46.09768 -3.52008,21.25165 -2.84603,43.24355 -7.10241,64.23633 -18.29581,-2.41471 -7.47626,-31.08728 -12.93762,-44.86986 -2.33735,-15.85957 -1.7435,-33.17097 -11.64853,-46.44809 C 352.13172,82.1017 334.15602,70.49384 313.453,69.42709 c -14.79284,-7.6557 -47.35781,6.72108 -25.67707,21.6534 13.14823,9.90093 40.4844,1.78307 43.62506,21.40618 5.3341,10.72585 17.22905,15.86378 8.57439,28.19644 -3.45309,15.88119 17.57271,38.08567 7.1053,48.12129 -11.09105,-12.19942 -4.43225,-32.59824 -19.11535,-41.83237 -14.56053,-11.77332 -28.90416,-24.15861 -44.96906,-33.77527 -16.71424,-8.64274 -36.41688,-8.23572 -54.63084,-6.70843 -9.70323,20.9044 21.70701,25.47691 35.10974,20.50158 4.24324,19.88046 28.55403,14.1021 41.00257,24.20726 9.97186,12.9416 15.93696,32.31384 31.23328,38.09233 -5.62766,15.95981 -23.63637,-5.61875 -34.28787,-7.92215 -15.30059,-5.45601 -31.12308,-11.37475 -47.99215,-8.59694 -15.04074,2.18552 -35.54845,-1.35255 -45.07207,12.94163 -11.66789,9.86055 -15.04342,29.33963 6.03582,26.11395 12.89411,0.69905 9.53596,-21.02789 20.32011,-20.10327 14.82145,13.23363 35.83795,4.60213 51.82103,6.78453 8.43926,10.10294 28.97057,6.92379 34.73138,15.80847 -17.43662,4.91559 -36.52006,4.2432 -53.75452,10.69367 -14.26461,8.65463 -32.89486,15.54782 -38.55316,32.59725 -11.71244,8.29853 1.59136,35.80325 11.23089,24.29303 4.09301,-6.5424 -0.52457,-21.52863 9.76253,-20.50551 17.22211,-3.05807 28.07935,-27.83667 47.70287,-18.70712 15.34378,2.95138 41.73608,0.89215 43.47444,21.42342 4.16554,23.20149 2.53966,47.05209 3.64388,70.53159 -2.88813,13.7249 10.7523,31.16411 -7.31274,42.35141 -8.69689,7.48259 8.62973,1.21465 9.81644,-0.78911 z m 16.03929,-159.282 c 1.32519,-10.51396 9.05217,5.2293 0,0 z m 27,-1 c 1.32519,-10.51396 9.05217,5.2293 0,0 z M 335.88976,370.4813 c 12.32237,-7.06452 4.83777,-29.85902 -5.41779,-11.98824 -10.57947,4.68374 -13.30686,27.33173 0.96716,16.72653 l 2.06295,-2.22807 z m 100.81324,5.15499 c 6.85221,-10.07141 -27.57575,-40.2383 -19.0387,-12.6104 5.6761,4.02202 10.60658,20.1608 19.0387,12.6104 z m -42.3644,-14.03395 c -3.12116,-15.22247 -6.16304,-30.47951 -8.58235,-45.30828 -1.79163,-5.86961 -5.69348,-28.47795 -8.79643,-10.3784 -3.10008,10.46946 -4.24951,20.82143 -6.66169,30.71177 -1.4326,8.23297 -6.16114,20.58463 -4.18419,27.69516 9.4099,-0.30088 19.476,-0.2221 28.3695,0.31129 z m 138.0179,-69.78797 c 7.93699,-7.95057 30.60427,-8.37082 31.29399,-17.20575 -9.37753,-22.44025 -25.81493,-0.79975 -39.96679,3.9604 -14.62275,2.65005 -8.86253,37.21659 3.29209,16.92218 l 2.7631,-2.00656 z m -22.51232,-1.98653 c 0.54648,-11.97109 -9.38941,-6.49157 -11.20506,-11.71367 -9.64717,-4.75266 -26.00507,-23.95764 -27.24433,-2.98653 -8.27148,10.97006 2.54552,6.69659 10.45415,7.51621 5.2498,4.75747 19.56746,6.72684 26.69674,13.27222 1.45372,-1.72171 1.08566,-4.04813 1.2985,-6.08823 z m -4.41501,3.54925 c -564.841235,480.07334 -282.42062,240.03667 0,0 z M 484.953,284.41566 c -9.38848,-3.01706 4.93566,1.931 0,0 z m 27.57667,-8.25 c 0.67116,-14.1458 -17.79899,-11.06441 -24.81553,-21.62031 -18.27917,8.19315 14.14424,14.14347 20.29016,21.22179 1.15154,-0.32708 6.38527,5.51573 4.52537,0.39852 z m 7.19416,-6.5625 c -2.95437,-4.4313 -3.45894,5.05624 0,0 z m 9.11589,0.12271 c 9.67464,-0.11049 -10.81914,-21.93752 -2.94164,-6.05024 -4.87059,2.25247 -4.19835,11.08667 2.94164,6.05024 z m 10.61329,-5.36662 c 17.88054,-4.68209 4.01115,-11.80811 -3.00452,-20.10755 -4.62205,-9.50834 -18.29972,-9.39175 -6.12348,0.63305 7.39861,4.97316 1.20308,15.02062 4.43571,21.91501 1.87552,0.19708 3.25825,-1.6075 4.69229,-2.44051 z M 227.953,248.91566 c 3.04991,-5.45962 -5.39078,5.54157 0,0 z"
       style="fill:#000000;fill-opacity:1"
       sodipodi:nodetypes="ccccccccccccccccccccccccccccccccccccccccccccccccccccccccccccccccccccccccccccccccccccccccccccccccccccccccccccccccccccccccccccccccccccccccccccccccccccccccccccccccccccccccccccccccccccccccccccccccccccccccccccccccccccccccccccccccccccccc" />
    <path
       style="fill:none;stroke:#000000;stroke-width:1px;stroke-linecap:butt;stroke-linejoin:miter;stroke-opacity:1"
       d="m 183.34588,390.45138 89.82143,-0.53572 50,3.39286 168.21429,-0.17857 31.96428,-3.39286 20,-3.03571 7.67857,16.60714 -7.5,1.07143 -63.03571,-1.07143 -23.57143,-0.89286 -26.78571,2.32143 -67.32143,-0.71428 -120.53572,-1.42858 -27.32142,-1.42857 -26.96429,0.17857 -5.71429,-1.07142 z"
       id="path4785"
       inkscape:connector-curvature="0"
       inkscape:export-filename="/home/ibnteo/sites/test/ladoshki42/logo.png"
       inkscape:export-xdpi="175.21001"
       inkscape:export-ydpi="175.21001" />
    <path
       style="fill:#887376;fill-opacity:1;stroke:#000000;stroke-width:0.35433072;stroke-linecap:round;stroke-linejoin:round;stroke-miterlimit:4;stroke-opacity:1;stroke-dasharray:none"
       d="m 511.81387,277.85173 c -0.29465,-0.16775 -0.78999,0.78834 -1.56375,0.27272 -0.77376,-0.51563 -1.88187,-2.45273 -1.99947,-2.45273 -0.1176,0 -0.4016,-0.19989 -0.63111,-0.44419 -1.30935,-1.39374 -4.7879,-3.31735 -11.11567,-6.14689 -10.11949,-4.52504 -13.32329,-6.53746 -14.06322,-8.8336 -0.4764,-1.47837 0.66548,-3.07059 3.25915,-4.54451 1.92145,-1.09191 1.91792,-1.09179 2.69701,-0.0876 0.77766,1.00238 2.64374,2.66094 4.02995,3.58179 1.50938,1.00268 3.90549,2.16676 7.60139,3.6929 6.73156,2.77965 9.0163,4.21093 10.71207,6.71064 1.0438,1.53866 1.52013,3.05094 1.71546,5.44643 0.0881,1.08036 0.20982,2.22545 0.27052,2.54464 0.12844,0.67553 -0.0791,0.73477 -0.91233,0.26037 z"
       id="path4824"
       inkscape:connector-curvature="0"
       sodipodi:nodetypes="csssssscssssccc"
       inkscape:export-filename="/home/ibnteo/sites/test/ladoshki42/logo.png"
       inkscape:export-xdpi="175.21001"
       inkscape:export-ydpi="175.21001" />
    <path
       style="fill:#4e4244;fill-opacity:1;stroke:#000000;stroke-width:0.35433072;stroke-linecap:round;stroke-linejoin:round;stroke-miterlimit:4;stroke-opacity:1;stroke-dasharray:none"
       d="m 551.79231,264.09366 c -11.99769,4.07877 -23.41193,10.29991 -33.78125,17.5 -4.58233,5.50345 -5.07957,15.55401 0.40625,20.5625 5.36611,0.30594 8.44725,-6.24701 13.03125,-8.375 9.08886,-7.52482 21.74959,-8.06344 30.5625,-15.71875 4.56828,-5.05027 -2.13296,-11.41424 -6.78125,-13.375 -1.1055,-0.40715 -2.2374,-0.75419 -3.4375,-0.59375 z"
       id="path4826"
       inkscape:connector-curvature="0"
       inkscape:export-filename="/home/ibnteo/sites/test/ladoshki42/logo.png"
       inkscape:export-xdpi="175.21001"
       inkscape:export-ydpi="175.21001" />
  </g>
</svg>
