<?xml version="1.0" encoding="UTF-8" standalone="no"?>
<svg
   xmlns:dc="http://purl.org/dc/elements/1.1/"
   xmlns:cc="http://creativecommons.org/ns#"
   xmlns:rdf="http://www.w3.org/1999/02/22-rdf-syntax-ns#"
   xmlns:svg="http://www.w3.org/2000/svg"
   xmlns="http://www.w3.org/2000/svg"
   xmlns:sodipodi="http://sodipodi.sourceforge.net/DTD/sodipodi-0.dtd"
   xmlns:inkscape="http://www.inkscape.org/namespaces/inkscape"
   width="166.04549"
   height="141.64178"
   id="svg3884"
   version="1.1"
   inkscape:version="0.48.5 r10040"
   sodipodi:docname="algo3.svg">
  <metadata
     id="metadata3893">
    <rdf:RDF>
      <cc:Work
         rdf:about="">
        <dc:format>image/svg+xml</dc:format>
        <dc:type
           rdf:resource="http://purl.org/dc/dcmitype/StillImage" />
        <dc:title></dc:title>
      </cc:Work>
    </rdf:RDF>
  </metadata>
  <defs
     id="defs3891" />
  <sodipodi:namedview
     pagecolor="#ffffff"
     bordercolor="#666666"
     borderopacity="1"
     objecttolerance="10"
     gridtolerance="10"
     guidetolerance="10"
     inkscape:pageopacity="0"
     inkscape:pageshadow="2"
     inkscape:window-width="1600"
     inkscape:window-height="838"
     id="namedview3889"
     showgrid="false"
     showguides="true"
     inkscape:guide-bbox="true"
     inkscape:snap-bbox="true"
     inkscape:bbox-paths="true"
     inkscape:bbox-nodes="true"
     inkscape:snap-bbox-edge-midpoints="true"
     inkscape:snap-bbox-midpoints="true"
     inkscape:object-paths="true"
     inkscape:snap-intersection-paths="true"
     inkscape:object-nodes="true"
     inkscape:snap-smooth-nodes="true"
     inkscape:snap-midpoints="true"
     inkscape:snap-object-midpoints="true"
     inkscape:snap-center="true"
     inkscape:zoom="3.4666667"
     inkscape:cx="-18.279027"
     inkscape:cy="52.084299"
     inkscape:window-x="-8"
     inkscape:window-y="-8"
     inkscape:window-maximized="1"
     inkscape:current-layer="Thu Nov  6 18:00:55 2014"
     fit-margin-top="0"
     fit-margin-left="0"
     fit-margin-right="0"
     fit-margin-bottom="0">
    <sodipodi:guide
       orientation="1,0"
       position="82.973306,43.429566"
       id="guide4405" />
    <sodipodi:guide
       orientation="0,1"
       position="90.724286,74.841426"
       id="guide4425" />
  </sodipodi:namedview>
  <g
     inkscape:groupmode="layer"
     id="Thu Nov  6 18:00:55 2014"
     transform="translate(-741.89395,-617.08385)">
    <g
       id="Box001"
       style="fill:none;stroke:#000000;stroke-width:0.26929134;stroke-miterlimit:4;stroke-opacity:1;stroke-dasharray:none">
      <!-- start Box001 -->
      <path
         id="curva_3D.Box001"
         d="m 865.4753,639.1068 0,0 8.3651,-3.6701 14.8681,-1.7394 -14.8901,1.6938 -8.3431,3.7157 -5.1627,4.327 -8.6617,6.7593 -6.3137,5.7563 -2.6033,6.907 -4.1019,7.9601 2.2447,-11.6368 1.5045,-5.779 -1.1914,-6.6765 3.6373,-7.1531 5.5213,-7.7754 10.3306,-1.6566 7.2561,-2.5273 1.5391,-9.0093 -9.4682,-0.9687 -12.6763,1.4574 -6.8738,3.8788 -8.0442,11.2213 -2.302,5.7653 -0.6082,5.8638 -1.5019,10.8396 -1.4528,12.0093 -1.6254,2.2085 -2.6826,-2.122 -0.7592,-13.4851 -1.9051,-10.192 -0.9243,-6.3118 -2.301,-5.2745 -4.5409,-7.1297 -4.7937,-4.6345 -7.7338,-3.0923 -8.5,-1.4174 -10.0528,2.7929 -0.2772,7.6846 9.3237,2.8054 8.6468,1.8102 4.8891,6.5511 4.4817,7.7914 -2.1274,6.8003 5.4978,17.9155 -0.3893,0.207 -7.413,-16.8323 -7.2755,-5.2062 -7.373,-6.6142 -9.354,-6.1264 -13.2791,-2.966 -10.4209,0.8147 -0.6836,7.059 7.4716,3.3667 9.002,0.3201 4.5123,5.5831 10.622,2.3505 4.4319,2.9863 6.0771,10.2928 7.3342,7.4689 2.4417,4.8373 -0.4201,0.0826 -5.8051,-4.7752 -12.5219,-6.0579 -11.0085,-3.7045 -13.9399,0.1922 -13.7107,2.5172 -7.3605,9.6548 -0.0716,3.6126 4.6485,3.1134 5.3343,-0.471 5.8411,-8.2633 8.0887,1.9692 5.2849,0.892 6.0046,-1.1793 6.2155,1.3392 13.7632,5.8879 9.327,5.5576 -9.3563,-2.7509 -12.0741,-0.624 -8.8962,0.5549 -10.0058,4.7971 -11.9069,11.3102 -0.0743,11.8546 7.9996,1.6856 2.3491,-9.4925 6.4234,-4.4933 7.7427,-5.4346 7.292,0.1369 10.4644,0.5792 6.0018,1.7961 3.8862,3.1362 0.9215,17.9139 -0.1779,21.1989 -8.7204,12.4203 0,4.2987 12.8879,0.425 5.6914,-6.5192 1.0986,-10.6248 3.9908,-19.9431 0.914,-1.2583 1.6712,-0.7213 1.6712,0.7213 0.8145,1.2583 3.4092,19.9431 3.7734,11.1685 3.8817,5.6333 14.0859,0.017 0,-4.3985 -10.0476,-12.4203 -0.2234,-21.1645 0.6994,-18.51 11.9081,-5.0541 10.5439,-1.257 9.7747,4.3848 3.9374,2.9637 7.4209,3.6618 5.4146,-6.2201 -6.8569,-6.5682 -7.1839,-3.8819 -12.0604,-4.8826 -13.1602,-1.9004 11.9087,-4.5107 7.1405,-2.8499 7.126,2.0231 11.8273,-2.422 5.4273,6.4365 6.0799,2.5417 5.8335,-5.8688 -8.0245,-10.5889 -8.0548,-2.4141 -21.0461,-0.4723 -6.929,1.2813 -15.2743,6.8814 7.0418,-13.5164 6.393,-6.079 8.0719,-2.0135 8.1561,-6.3151 9.881,-0.6508 4.2471,-1.1366 1.8599,-8.1284 -5.4184,-1.5187"
         style="fill:none;stroke:#000000;stroke-width:0.26929134;stroke-linecap:round;stroke-miterlimit:4;stroke-opacity:1;stroke-dasharray:none"
         inkscape:connector-curvature="0" />
    </g>
    <!-- end Box001 -->
    <path
       sodipodi:type="arc"
       style="fill:none;stroke:#000000;stroke-width:0.26929134;stroke-miterlimit:4;stroke-opacity:1;stroke-dasharray:none"
       id="path4403"
       sodipodi:cx="818.94232"
       sodipodi:cy="683.65387"
       sodipodi:rx="2.0192308"
       sodipodi:ry="2.0192308"
       d="m 820.96155,683.65387 c 0,1.11519 -0.90404,2.01923 -2.01923,2.01923 -1.11519,0 -2.01923,-0.90404 -2.01923,-2.01923 0,-1.11519 0.90404,-2.01923 2.01923,-2.01923 1.11519,0 2.01923,0.90404 2.01923,2.01923 z"
       transform="translate(0.5099328,0.23035037)" />
    <path
       sodipodi:type="arc"
       style="fill:none;stroke:#000000;stroke-width:0.26929134;stroke-miterlimit:4;stroke-opacity:1;stroke-dasharray:none"
       id="path4403-8"
       sodipodi:cx="818.94232"
       sodipodi:cy="683.65387"
       sodipodi:rx="2.0192308"
       sodipodi:ry="2.0192308"
       d="m 820.96155,683.65387 c 0,1.11519 -0.90404,2.01923 -2.01923,2.01923 -1.11519,0 -2.01923,-0.90404 -2.01923,-2.01923 0,-1.11519 0.90404,-2.01923 2.01923,-2.01923 1.11519,0 2.01923,0.90404 2.01923,2.01923 z"
       transform="translate(11.656687,0.23035037)" />
  </g>
</svg>
